# xmcd
# 
# Track frame offsets:
#     150
#     13772
#     32725
#     47505
#     61340
#     73670
#     85898
#     95916
#     105331
#     116536
#     136623
#     146431
#     158731
#     170470
#     180854
#     197993
#     209844
#     225044
#     241603
#     252059
# 
# Disc length: 3502
# 
# Revision: 1
# Processed by: cddbd v1.5.2PL0 Copyright (c) Steve Scherf et al.
# Submitted via: fre:ac v1.0.27
# 
DISCID=fe0dac14
DTITLE=Various Artist - New Orleans - The Intro Collection - CD1 Crescent City Struttin'
DYEAR=2009
DGENRE=Jazz
TTITLE0=The Meters - Cissy Strut
TTITLE1=Aaron Neville - Hercules
TTITLE2=Allen Toussaint - Sweet touch of love
TTITLE3=Lee Dorsey - Everything I do gonh be funky
TTITLE4=Irma Thomas - Ruler of my heart
TTITLE5=Ernie K Doe - Mother in law
TTITLE6=The Showmen - It will stand
TTITLE7=The Dixie Cups - Iko iko
TTITLE8=Lee Dorsey - Get out of my life woman
TTITLE9=The Meters - Cardova
TTITLE10=Zilla Mayes - All I want is you
TTITLE11=Barbara George - Something you got
TTITLE12=Fats Domino - Blueberry hill
TTITLE13=Dr John - Trader john
TTITLE14=Skip Easterling - I'm your hoochie coochie man
TTITLE15=Lee Dorsey - Confusion
TTITLE16=Allen Toussaint - Chokin' kind
TTITLE17=Aaron Neville - Struttin' on sunday
TTITLE18=Irma Thomas - Hitting on nothing
TTITLE19=Betty Harris - I'm evil tonight
EXTD=
EXTT0=
EXTT1=
EXTT2=
EXTT3=
EXTT4=
EXTT5=
EXTT6=
EXTT7=
EXTT8=
EXTT9=
EXTT10=
EXTT11=
EXTT12=
EXTT13=
EXTT14=
EXTT15=
EXTT16=
EXTT17=
EXTT18=
EXTT19=
PLAYORDER=
